<svg xmlns="http://www.w3.org/2000/svg" xmlns:xlink="http://www.w3.org/1999/xlink" viewBox="0 0 696 669"><defs><style>.cls-1{fill:url(#linear-gradient);}.cls-2{fill:url(#linear-gradient-2);}.cls-3{fill:url(#linear-gradient-3);}.cls-4{fill:url(#linear-gradient-4);}.cls-5{fill:url(#linear-gradient-5);}.cls-6{fill:url(#linear-gradient-6);}.cls-7{fill:url(#linear-gradient-7);}.cls-8{fill:url(#linear-gradient-8);}.cls-9{fill:url(#linear-gradient-9);}.cls-10{fill:url(#linear-gradient-10);}.cls-11{fill:url(#linear-gradient-11);}.cls-12{fill:url(#linear-gradient-12);}.cls-13{fill:url(#linear-gradient-13);}.cls-14{fill:url(#linear-gradient-14);}.cls-15{fill:url(#linear-gradient-15);}.cls-16{fill:url(#linear-gradient-16);}.cls-17{fill:url(#linear-gradient-17);}.cls-18{font-size:21px;fill:#4d4d4d;font-family:Gilroy-Medium;font-weight:500;letter-spacing:0.2em;}.cls-19{letter-spacing:0.19em;}.cls-20{letter-spacing:0.2em;}.cls-21{letter-spacing:0.17em;}.cls-22{letter-spacing:0.16em;}</style><linearGradient id="linear-gradient" x1="217.52" y1="283.53" x2="370.13" y2="468.04" gradientUnits="userSpaceOnUse"><stop offset="0" stop-color="#ffb43c"/><stop offset="1" stop-color="#e27a00"/></linearGradient><linearGradient id="linear-gradient-2" x1="339.95" y1="182.27" x2="529.75" y2="411.74" xlink:href="#linear-gradient"/><linearGradient id="linear-gradient-3" x1="469.82" y1="74.85" x2="705.46" y2="359.75" xlink:href="#linear-gradient"/><linearGradient id="linear-gradient-4" x1="180.02" y1="-15.29" x2="420.24" y2="623.32" gradientUnits="userSpaceOnUse"><stop offset="0" stop-color="#f06493"/><stop offset="0.16" stop-color="#ec6294"/><stop offset="0.33" stop-color="#df5e95"/><stop offset="0.5" stop-color="#ca5698"/><stop offset="0.67" stop-color="#ad4c9b"/><stop offset="0.84" stop-color="#883ea0"/><stop offset="0.97" stop-color="#6732a4"/></linearGradient><linearGradient id="linear-gradient-5" x1="143.75" y1="146.71" x2="231.68" y2="278.6" gradientUnits="userSpaceOnUse"><stop offset="0" stop-color="#ffb0ce"/><stop offset="1" stop-color="#973997"/></linearGradient><linearGradient id="linear-gradient-6" x1="221.64" y1="94.78" x2="309.57" y2="226.68" xlink:href="#linear-gradient-5"/><linearGradient id="linear-gradient-7" x1="282.8" y1="54.01" x2="384.9" y2="207.16" xlink:href="#linear-gradient-5"/><linearGradient id="linear-gradient-8" x1="348.26" y1="10.37" x2="462.23" y2="181.33" xlink:href="#linear-gradient-5"/><linearGradient id="linear-gradient-9" x1="351.55" y1="641.28" x2="487.68" y2="536.93" gradientUnits="userSpaceOnUse"><stop offset="0" stop-color="#dd6326"/><stop offset="0.57" stop-color="#f37836"/><stop offset="1" stop-color="#ff833e"/></linearGradient><linearGradient id="linear-gradient-10" x1="386.26" y1="655.35" x2="522.39" y2="551" gradientUnits="userSpaceOnUse"><stop offset="0" stop-color="#dd6326"/><stop offset="0.29" stop-color="#ec7231"/><stop offset="0.67" stop-color="#fa7f3b"/><stop offset="1" stop-color="#ff833e"/></linearGradient><linearGradient id="linear-gradient-11" x1="402.92" y1="677.08" x2="539.05" y2="572.73" gradientUnits="userSpaceOnUse"><stop offset="0.21" stop-color="#dd6326"/><stop offset="0.4" stop-color="#e66c2c"/><stop offset="1" stop-color="#ff833e"/></linearGradient><linearGradient id="linear-gradient-12" x1="447.38" y1="673.82" x2="583.5" y2="569.47" gradientUnits="userSpaceOnUse"><stop offset="0.16" stop-color="#dd6326"/><stop offset="1" stop-color="#ff833e"/></linearGradient><linearGradient id="linear-gradient-13" x1="135.37" y1="615.32" x2="271.62" y2="525.62" gradientUnits="userSpaceOnUse"><stop offset="0" stop-color="#993271"/><stop offset="1" stop-color="#c23b88"/></linearGradient><linearGradient id="linear-gradient-14" x1="154.38" y1="633.97" x2="290.64" y2="544.27" xlink:href="#linear-gradient-13"/><linearGradient id="linear-gradient-15" x1="180.67" y1="651.49" x2="316.93" y2="561.78" xlink:href="#linear-gradient-13"/><linearGradient id="linear-gradient-16" x1="197.08" y1="676.42" x2="333.34" y2="586.71" xlink:href="#linear-gradient-13"/><linearGradient id="linear-gradient-17" x1="209.01" y1="694.53" x2="345.26" y2="604.83" xlink:href="#linear-gradient-13"/></defs><g id="Layer_2" data-name="Layer 2"><g id="Layer_1-2" data-name="Layer 1"><path class="cls-1" d="M147.05,310.55a25.52,25.52,0,0,0-1.44-4.51c-.55-1.05-1.09-2.06-1.63-3s-1-1.4-1.46-1.36a6.77,6.77,0,0,0-1.93.69c-.84.42-1.69.89-2.52,1.41s-1.78,1.07-2.83,1.61l-5.55-56.65,68.12-10.66a12.74,12.74,0,0,1,3.52,2c.94.58,1.83,1.1,2.65,1.57a15.71,15.71,0,0,1,2,1.31c.5.62,2.09,1,4.77,1.19,1.12.12,2.56.2,4.35.24l19.6-6.9L244,248.19q4.71-2.79,9.74-5.78t9.12-5.38l9.43-5.58,63.07-4.5,2.6,13a10.41,10.41,0,0,0,2.67.07,6.25,6.25,0,0,0,2,.14c.66-.07,1,0,1,.23q.66,13.57,1.25,24.65t1.13,25.16q.54,14.08,1.31,28.64L351,397l-22.66,2.88-16.2-2.41q-6.09-1.05-11.47-1.7c-3.59-.42-5.5-.63-5.71-.6-.44,0-.47-1.34-.08-4.15s.86-6,1.39-9.62q.74-6,2.3-13.85l-4.69-7.19,14-78.18-36.51,14.21,12.49,86.9-2.16,8.52-11.84,11.47L218.1,391.05l-6.39,16.26L159,411.8q-3.51-8.62-6.19-15.68-2.26-6.09-4.24-11.06a48.19,48.19,0,0,1-2.05-5.62,7.59,7.59,0,0,1,.59-2.55c.42-1.26.91-2.58,1.44-4l2.11-5.53,5-6.48-13.56.66L142,336.66q16.13-11.9,29.79-21.87,5.89-4.23,11.64-8.46l10.7-7.86q5-3.64,8.86-6.36t5.77-3.89q-3.83,1.71-13.94,5.36T174,300.93ZM226.78,320q.69.27-4.32,5.08t-11.12,10.4q-7.32,6.69-16.46,15.24l4,10.25,9.55-14.57,23.88-4,2,13.77a10.92,10.92,0,0,0,2.61-.58c1.53-.15,2.5-.47,2.9-.95.21,0,.08-2-.42-5.95s-1.09-8.31-1.78-13.12q-1.17-8.53-2.83-18.68c-1.71.61-3.22,1.09-4.51,1.44a11.91,11.91,0,0,1-2.89,1.11C226.53,319.68,226.32,319.87,226.78,320Z"/><path class="cls-2" d="M498.07,268.55l7.61,60.77,2,48L393.19,389.55l-23.85-9.31-2.87-59.9,6.5-5-7-.31-2.14-93.23,64.69-5,2.32,6.76L446,222.11l-2.76-4.39,54.12-7.62L497,233.41l-15.06,5.8L493,237.45l-2.11,15.84-79.11,7.08,7.89,80.69,46.79,2.41-.4-24.57-37.38,2-.17-15.27,14.5-4.75-12.25.53,2.8-18.89Z"/><path class="cls-3" d="M691.72,242.62l4.28-.42-4.85,96.57-11,3.4,2.86,2.05-11.69,13.11L616,365.75,603.7,335.36l-16.24,34.51-43.63-.72L538.68,371l-7.39-7.59-8-54.41,15.4-9.16-23.38,2.29-2.09-24.73-3.76-11.28,12.87-.92,55-5.39,1.39-6.12q-13.56.68-24.47,1.4-9.59.62-18.16,1.28t-10.56.86a5.81,5.81,0,0,0-.82-1.58c-.52-.83-1.06-1.77-1.6-2.83q-1.15-1.56-2.66-3.4l2.84-4.93L516,227.89l34.39-2q6.29-.27,12.56-.73c4.18-.29,7.92-.61,11.22-.93l10.87-1.06c0-.22.56.16,1.77,1.15l2.17,1.79,3.69-3,30.44-1.64-1,20.38-9,.21,7.24,2.62-2.66,27.19.46,14.92-52.7,8.48a48.1,48.1,0,0,0,.67,10.24c.62,4.16,1.35,8.18,2.18,12.09q1.33,6.86,3.06,14.34l2.67.07,12.24-24.48,31-12.68a49,49,0,0,0,3.15,6.68q2.65,5.07,5.75,11.24t6,11.72c1.91,3.7,3.28,6.28,4.08,7.75l11.5-15.09-3.43-106.41-6.69-.34.74-6.06-122.55,8.34-5.82-22.05,10.81-1.72c-2.29-.66-4.34-1.24-6.16-1.72q-2.37-.44-4.08-.93c-1.14-.33-1.72-.61-1.74-.83A9.62,9.62,0,0,1,509,183a28,28,0,0,1,.21-4.67c0-2,.14-4.23.34-6.69l25.79-1.52-17.17-25.92,3.49-12,53.83-10.59.41,4.28,18.68-2.83-4.3-3.23,87.7-7.59-.5,22L668,136.2l5.56,2.45-.69,16.69-93,1.45-4.18,1.41a17.75,17.75,0,0,1,.65,3.26c.11,1.1.21,2.2.32,3.3a17.59,17.59,0,0,0,.65,3.26l76.74-4.19-.57,4.38,31.81,2.21,10.09,52.22-4.67-.21Z"/><path class="cls-4" d="M630.43,395.83a12.28,12.28,0,0,0-13.35-11.09L170.76,439.32a55.6,55.6,0,0,0-43.17-20.53h-.93L87.49,18.16a12.27,12.27,0,0,0-10.83-11L13.65.08A13.29,13.29,0,0,0,12.25,0,12.27,12.27,0,0,0,10.9,24.47l43.3,4.89c5.75.65,16.4,75.78,17,81.54l31.38,313.83A55.71,55.71,0,1,0,181.91,462l437.43-52.86A12.27,12.27,0,0,0,630.48,397,11.18,11.18,0,0,0,630.43,395.83ZM162.87,474.52c0,19.45-14.3,32.22-33.75,32.22S94.35,494.48,94.35,475c0-10.83,3.79-20.69,10.51-27.29a29.53,29.53,0,0,1,21.19-8.5,35.56,35.56,0,0,1,5.77.47,37.58,37.58,0,0,1,29.47,24.83A32.13,32.13,0,0,1,162.87,474.52Z"/><path class="cls-5" d="M198.37,161l4.16,33.22,1.12,26.26L141,227.15l-13-5.09-1.57-32.75L130,186.6l-3.84-.17-1.17-51,35.37-2.73,1.27,3.69,8.29-.81-1.51-2.4L198,129l-.21,12.74L189.53,145l6.09-1-1.16,8.66-43.25,3.87,4.31,44.12L181.11,202l-.23-13.44-20.44,1.09-.09-8.35,7.93-2.59-6.7.29,1.54-10.33Z"/><path class="cls-6" d="M229.18,148.89l-2.32,2.23L214,153.29l-1.3-7.69,7.64-1.84-7.42-1.46-4.18-13,26.78-6.81-.68,2.25,25-3.17,9.08,12.93a49.82,49.82,0,0,1,3.87-4.1c1.61-1.55,3.18-3.07,4.74-4.56q2.67-2.44,5.66-5.28l35.34-6.73L324.19,124l2.63.83L330,186.48l.65,21.57-17.25,3.87-1.74-8.51-.71,7.66-9-2.94L304.45,147l-2.85-5-24.79,19.88,15.24-.4,1.9,13.82-2.53.24,2.31,6.87.85-.63-3,28.48-45.08,3.86-4.34,2.07-24.94-.29-3-21q2-1.47,3.93-2.57a36.53,36.53,0,0,1,3.18-2c1.09-.59,1.92-1,2.5-1.33q-1.23.48-3.33,1.23l-4.22,1.51a57.37,57.37,0,0,1-5.46,1.8l-3.24-7.13,2.31-2.41-.15-8.9,45.06-30ZM262.7,170c0,.24-.9,1-2.78,2.27l-6.22,4.25-8.87,6-2,9.1q6.7-.28,12.32-.47c3.14-.07,6.07-.2,8.78-.41l4.42-.34,1.34-21.59-3.6.36a13.9,13.9,0,0,0-2.41.41C263,169.7,262.69,169.85,262.7,170Zm3-32.29c0,.12.07.11.18,0Z"/><path class="cls-7" d="M368.12,115.84l2,3.62,4.64,47.36-1.77.54a16.41,16.41,0,0,1-2.12.57c-.24,0,.26.22,1.51.58a6.17,6.17,0,0,0,1.85.37l.48,29-6.5,9.73L340,206l-1.26-13,3.89-1.11-4.23-2.31-.69-7,13.65-1.7.43-23.5-2.5.43-.49-18-14.37,1.77c-.25-2.53-.41-4.87-.51-7.05-.16-1.68-.29-3.27-.37-4.78s-.14-2.32-.15-2.44.24-.29.77-.53l1.83-.81c.81-.32,1.74-.72,2.79-1.18l-4,0c-1,0-1.91,0-2.82,0s-1.41.17-1.5.42-.2.11-.32-.43a19.56,19.56,0,0,1-.29-2.06l-.31-3.24Z"/><path class="cls-8" d="M496.16,105.13l2.07,84.34-5.74-1.08-16.23,5-3.84-.17.44-53.13-2-.34.75-12.8-9.29,1.63-10.46,15.75,6.59-1.37-1.56,50.88-51.37,6.48-24.3-10.53,2.13-34,1.84-1.64-2.9-1.72,2.1-38L389,114c.24,0,.2-.38-.11-1.08l-.46-1,50.45-10.21,3.65,13.09-6.81,1,3.46,0a9.59,9.59,0,0,0,.71,1.75,10.88,10.88,0,0,1,.71,1.66,6.38,6.38,0,0,0,.69,1.47l-.79,1.17-31.42,6-2.92,44.46q7.11.22,12.95.37l9,.12c2.73,0,4.09,0,4.07-.13s.09-1,.3-2.57.51-3.38.93-5.36q.41-3.32,1.24-7.76l-15.89,3-.41-11.6,22.14-26.53c.83-.08,1.26-.06,1.27.06s0-.18-.48-1.23c1.6-2.21,3.09-4.33,4.47-6.34s2.6-3.8,3.66-5.36,2.34-3.32,3.52-4.89l6.7-2.11,33.8-3.85.06,6.17Z"/><path class="cls-9" d="M420.63,628.69H409.16l-18-23.64v23.64h-9.95V578.21h9.95v22.25l17.31-22.25H419.9l-18.67,24.52Z"/><path class="cls-10" d="M449.25,592.64h9.3v36.05h-9.3v-4.25q-4.19,5.26-11.75,5.26a16.34,16.34,0,0,1-12.37-5.52,20.32,20.32,0,0,1,0-27,16.33,16.33,0,0,1,12.37-5.51q7.58,0,11.75,5.26ZM432.09,618a9.59,9.59,0,0,0,7.14,2.85A9.72,9.72,0,0,0,446.4,618a10.83,10.83,0,0,0,0-14.64,9.75,9.75,0,0,0-7.17-2.84,9.62,9.62,0,0,0-7.14,2.84,10.94,10.94,0,0,0,0,14.64Z"/><path class="cls-11" d="M494.32,578.21h9.3v50.48h-9.3v-4.25q-4.11,5.26-11.68,5.26a16.41,16.41,0,0,1-12.44-5.52,20.29,20.29,0,0,1,0-27,16.4,16.4,0,0,1,12.44-5.51q7.58,0,11.68,5.26ZM477.19,618a9.73,9.73,0,0,0,7.18,2.85,9.62,9.62,0,0,0,7.14-2.85,10.94,10.94,0,0,0,0-14.64,9.65,9.65,0,0,0-7.14-2.84,9.76,9.76,0,0,0-7.18,2.84,10.85,10.85,0,0,0,0,14.64Z"/><path class="cls-12" d="M520,614.49q1.88,6.76,10.17,6.77,5.34,0,8.07-3.6l7.5,4.32q-5.33,7.72-15.72,7.72-8.94,0-14.35-5.41a19,19,0,0,1,13.63-32.66,17.17,17.17,0,0,1,13.09,5.48,19,19,0,0,1,5.16,13.55,21.86,21.86,0,0,1-.36,3.83Zm-.14-7.22h18.38a8.7,8.7,0,0,0-3.28-5.48,9.4,9.4,0,0,0-5.66-1.8,9.81,9.81,0,0,0-6.2,1.91A9.19,9.19,0,0,0,519.85,607.27Z"/><path class="cls-13" d="M185.6,573.72v9.52H172v41H162v-41H148.46v-9.52Z"/><path class="cls-14" d="M210.77,587.14a13.08,13.08,0,0,1,9.77,4q3.86,4,3.85,11V624.2h-9.3v-21a7.41,7.41,0,0,0-1.94-5.52,7.12,7.12,0,0,0-5.2-1.91,7.68,7.68,0,0,0-5.77,2.24q-2.16,2.24-2.16,6.7V624.2h-9.3V573.72H200v18.46Q203.41,587.14,210.77,587.14Z"/><path class="cls-15" d="M263,619.69a19.22,19.22,0,1,1,5.56-13.52A18.28,18.28,0,0,1,263,619.69Zm-20.51-6.38a9.35,9.35,0,0,0,7,2.81,9.45,9.45,0,0,0,7-2.81,10.48,10.48,0,0,0,0-14.28,9.49,9.49,0,0,0-7-2.81,9.39,9.39,0,0,0-7,2.81,10.56,10.56,0,0,0,0,14.28Z"/><path class="cls-16" d="M302.78,588.15h9.08v34.32q0,8.37-5.51,12.76a20.66,20.66,0,0,1-13.31,4.4,22.51,22.51,0,0,1-10.27-2.23,15.66,15.66,0,0,1-6.82-6.56l7.93-4.55q2.75,5.06,9.45,5.05a9.86,9.86,0,0,0,6.92-2.31,8.45,8.45,0,0,0,2.53-6.56v-3.89q-4.11,5.48-11.54,5.48a17,17,0,0,1-12.8-5.38,19.08,19.08,0,0,1,0-26.14,17,17,0,0,1,12.76-5.4q7.42,0,11.54,5.48ZM285.43,612.7a10.84,10.84,0,0,0,14.5,0,9.49,9.49,0,0,0,2.85-7.1,9.39,9.39,0,0,0-2.85-7,10.84,10.84,0,0,0-14.5,0,9.38,9.38,0,0,0-2.84,7A9.48,9.48,0,0,0,285.43,612.7Z"/><path class="cls-17" d="M347.7,588.15H357V624.2h-9.3V620q-4.18,5.26-11.75,5.26a16.34,16.34,0,0,1-12.37-5.52,20.29,20.29,0,0,1,0-27A16.33,16.33,0,0,1,336,587.14q7.56,0,11.75,5.26Zm-17.16,25.34a9.59,9.59,0,0,0,7.14,2.85,9.72,9.72,0,0,0,7.17-2.85,10.83,10.83,0,0,0,0-14.64,9.75,9.75,0,0,0-7.17-2.84,9.62,9.62,0,0,0-7.14,2.84,10.94,10.94,0,0,0,0,14.64Z"/><text class="cls-18" transform="translate(224.47 663.79)">WHOLE<tspan class="cls-19" x="94.35" y="0">S</tspan><tspan class="cls-20" x="110.46" y="0">ALE </tspan><tspan class="cls-21" x="167.39" y="0">S</tspan><tspan class="cls-22" x="183.2" y="0">T</tspan><tspan x="197.9" y="0">ORE</tspan></text></g></g></svg>